<?xml version="1.0" encoding="utf-8"?>
<!-- Generator: Adobe Illustrator 23.0.3, SVG Export Plug-In . SVG Version: 6.00 Build 0)  -->
<svg version="1.1" xmlns="http://www.w3.org/2000/svg" xmlns:xlink="http://www.w3.org/1999/xlink" x="0px" y="0px"
	 viewBox="0 0 256 256" style="enable-background:new 0 0 256 256;" xml:space="preserve">
<style type="text/css">
	.st0{fill:#878787;}
	.st1{fill:#F2E1D6;}
	.st2{fill:#FFFFFF;}
	.st3{fill:#F0C020;}
	.st4{fill:#F9E5AF;}
	.st5{fill:#72C1E8;}
	.st6{fill:#C5E5FF;}
	.st7{fill:#13BF6D;}
	.st8{fill:#76FFBA;}
	.st9{fill:#EFEFEF;}
	.st10{fill:#FC5D3D;}
	.st11{fill:#FFCBC2;}
	.st12{fill:#FFB69F;}
	.st13{fill:#AFAFAF;}
	.st14{fill:#7C7B7A;}
	.st15{fill:#D6C0B4;}
	.st16{fill:#7A7380;}
	.st17{fill:#F0AB20;}
	.st18{fill:#FBE0E2;}
	.st19{fill:#4C4945;}
	.st20{fill:#68B0D4;}
	.st21{fill:#B35034;}
	.st22{fill:#EDAF85;}
	.st23{fill:#139C6D;}
</style>
<g id="Layer_2">
</g>
<g id="Layer_1">
	<g>
		<g>
			<g>
				<g>
					<polygon class="st10" points="202.468,48.161 202.468,137.215 67.79,137.215 67.79,12.95 89.24,12.95 89.24,39.422 
						146.385,39.422 146.385,12.95 167.245,12.95 					"/>
				</g>
				<g>
					<path class="st11" d="M78.312,127.885c-1.381,0-2.5-1.119-2.5-2.5v-76c0-1.381,1.119-2.5,2.5-2.5s2.5,1.119,2.5,2.5v76
						C80.812,126.766,79.693,127.885,78.312,127.885z M78.312,41.885c-1.381,0-2.5-1.119-2.5-2.5v-11.61c0-1.381,1.119-2.5,2.5-2.5
						s2.5,1.119,2.5,2.5v11.61C80.812,40.766,79.693,41.885,78.312,41.885z"/>
				</g>
				<g>
					<path class="st11" d="M190.638,127.885c-1.381,0-2.5-1.119-2.5-2.5v-12.328c0-1.381,1.119-2.5,2.5-2.5s2.5,1.119,2.5,2.5
						v12.328C193.138,126.766,192.019,127.885,190.638,127.885z M190.638,105.558c-1.381,0-2.5-1.119-2.5-2.5v-48.96l-27.56-27.55
						c-0.977-0.976-0.977-2.559,0-3.536c0.975-0.977,2.559-0.976,3.535,0l28.292,28.283c0.469,0.469,0.732,1.105,0.732,1.768v49.996
						C193.138,104.439,192.019,105.558,190.638,105.558z"/>
				</g>
				
					<ellipse transform="matrix(0.9871 -0.1602 0.1602 0.9871 -9.9778 22.5902)" class="st14" cx="135.129" cy="73.183" rx="13.853" ry="13.853"/>
				<g>
					<polygon class="st9" points="89.24,7.097 89.24,12.95 89.24,39.422 146.385,39.422 146.385,12.95 146.385,7.097 					"/>
				</g>
				<rect x="90.609" y="105.554" class="st9" width="89.038" height="31.667"/>
			</g>
			<g>
				<path class="st12" d="M201.188,177.808c-4.734-4.74-12.413-4.74-17.147,0L166.244,195.6c-1.945,1.95-4.59,3.045-7.345,3.045
					h-51.215c-4.548,0-8.235-3.687-8.235-8.235v0c0-6.953,5.637-12.59,12.59-12.59l19.035,0c6.065,0,11.36-4.75,11.372-11.017
					c0.012-6.106-4.928-11.064-11.041-11.064H84.325c-13.491,0-26.282,6.001-34.895,16.386L20.192,209.98l38.917,38.923
					l8.285-13.424c3.161-5.134,8.762-8.262,14.791-8.262h81.224c3.528,0,6.918-1.4,9.413-3.901
					c14.773-14.773,8.569-8.57,28.366-28.36C205.928,190.221,205.928,182.542,201.188,177.808z"/>
			</g>
			<g>
				<path class="st18" d="M55.742,233.417c-1.175-0.725-1.54-2.265-0.815-3.44c1.054-1.709,1.434-2.355,2.214-3.436
					c0.81-1.119,2.369-1.373,3.491-0.563c1.119,0.808,1.371,2.371,0.563,3.49c-0.703,0.972-1.087,1.634-2.013,3.134
					C58.458,233.775,56.92,234.144,55.742,233.417z M64.25,222.491c-0.771-1.145-0.468-2.699,0.678-3.47
					c5.155-3.471,11.123-5.306,17.259-5.306h81.145l28.316-28.312c0.977-0.976,2.559-0.976,3.535,0s0.977,2.559,0,3.536
					l-28.37,28.365c-0.893,0.896-2.133,1.411-3.401,1.411H82.186c-5.137,0-10.139,1.54-14.466,4.453
					C66.575,223.94,65.022,223.638,64.25,222.491z"/>
			</g>
			<g>
				<g>
					<path class="st3" d="M51.966,118.73c-4.009-1.325-8.149-2.482-10.473-12.495c-2.141,9.222-5.571,10.875-10.473,12.495
						c7.996,2.642,9.202,7.017,10.473,12.495C43.684,121.782,47.308,120.269,51.966,118.73z"/>
				</g>
			</g>
			<g>
				<g>
					<path class="st3" d="M218.466,20.23c-4.009-1.325-8.149-2.482-10.473-12.495c-2.141,9.222-5.571,10.875-10.473,12.495
						c7.996,2.642,9.202,7.017,10.473,12.495C210.184,23.282,213.808,21.769,218.466,20.23z"/>
				</g>
			</g>
			<g>
				<g>
					<path class="st3" d="M235.814,55.98c-4.009-1.325-8.149-2.482-10.473-12.495c-2.141,9.222-5.571,10.875-10.473,12.495
						c7.996,2.642,9.202,7.017,10.473,12.495C227.532,59.032,231.156,57.519,235.814,55.98z"/>
				</g>
			</g>
		</g>
		<path d="M102.468,121.387c0,1.381,1.119,2.5,2.5,2.5h60.32c1.381,0,2.5-1.119,2.5-2.5s-1.119-2.5-2.5-2.5h-60.32
			C103.588,118.887,102.468,120.006,102.468,121.387z"/>
		<path d="M132.435,30.275c1.381,0,2.5-1.119,2.5-2.5v-10.39c0-1.381-1.119-2.5-2.5-2.5s-2.5,1.119-2.5,2.5v10.39
			C129.935,29.156,131.054,30.275,132.435,30.275z"/>
		<path d="M65.291,12.953v47.99c0,1.38,1.12,2.5,2.5,2.5s2.5-1.12,2.5-2.5c0,0,0,0,0-0.01v-45.48H86.74v23.969
			c0,1.315,1.087,2.501,2.501,2.501h57.14c1.32,0,2.504-1.066,2.504-2.501V15.453h17.326l33.76,33.74v85.52h-17.82v-29.16
			c0-1.365-1.115-2.5-2.5-2.5H156.9c-1.369,0-2.5,1.12-2.5,2.5c0,1.38,1.131,2.5,2.5,2.5h20.25v26.66H93.11v-26.66h43.79
			c1.381,0,2.5-1.12,2.5-2.5c0-1.38-1.119-2.5-2.5-2.5H90.61c-1.381,0-2.5,1.125-2.5,2.5v29.16H70.291v-53.77
			c0-1.37-1.12-2.5-2.5-2.5s-2.5,1.13-2.5,2.5v56.27c0,1.381,1.111,2.5,2.5,2.5c0.119,0,134.68,0,134.68,0
			c1.328,0,2.5-1.074,2.5-2.5v-89.05c0-0.67-0.26-1.3-0.74-1.77l-35.22-35.21c-0.47-0.47-1.11-0.73-1.77-0.73h-18.356V7.097
			c0-1.381-1.119-2.5-2.5-2.5H89.24c-1.381,0-2.5,1.119-2.5,2.5v3.355H67.791C66.403,10.453,65.291,11.569,65.291,12.953z
			 M143.884,9.597v27.324H91.741c0-25.253-0.001-25.21-0.001-27.324H143.884z"/>
		<circle cx="67.791" cy="70.942" r="2.5"/>
		<path d="M135.129,56.83c-9.018,0-16.354,7.336-16.354,16.353c0,9.018,7.336,16.354,16.354,16.354s16.354-7.336,16.354-16.354
			C151.482,64.166,144.146,56.83,135.129,56.83z M135.129,84.537c-6.261,0-11.354-5.093-11.354-11.354s5.093-11.353,11.354-11.353
			s11.354,5.093,11.354,11.353S141.389,84.537,135.129,84.537z"/>
		<circle cx="146.9" cy="105.553" r="2.5"/>
		<path d="M18.661,211.962c1.125,0.852,2.661,0.628,3.51-0.45l18.03-23.35c0.842-1.09,0.651-2.658-0.45-3.51
			c-1.061-0.82-2.69-0.6-3.51,0.45l-18.03,23.35C17.375,209.532,17.564,211.115,18.661,211.962z"/>
		<path d="M45.86,176.743c-1.06-0.82-2.689-0.61-3.5,0.45c-0.85,1.09-0.64,2.66,0.45,3.51c1.104,0.852,2.675,0.629,3.5-0.46
			C47.138,179.193,46.98,177.608,45.86,176.743z"/>
		<path d="M202.951,196.723c5.664-5.645,5.782-14.917,0-20.68c-5.751-5.77-15.026-5.674-20.681,0l-17.79,17.79
			c-1.47,1.47-3.5,2.31-5.58,2.31h-51.22c-3.16,0-5.729-2.58-5.729-5.73c0.01-5.56,4.529-10.08,10.09-10.09h19.029
			c7.564,0,13.87-6.022,13.87-13.54c0-7.47-6.069-13.54-13.54-13.54H84.32c-13.609,0-26.609,5.81-35.67,15.95
			c-0.92,1.03-0.83,2.61,0.2,3.53c0.99,0.89,2.65,0.79,3.53-0.2c8.11-9.08,19.75-14.28,31.939-14.28h47.08
			c4.7,0,8.54,3.83,8.54,8.54c0,4.909-4.252,8.54-8.87,8.54h-19.029c-8.32,0-15.09,6.77-15.09,15.09c0,5.92,4.81,10.73,10.729,10.73
			h51.22c3.44,0,6.681-1.34,9.11-3.78l17.8-17.79c3.76-3.759,9.844-3.767,13.61,0c3.773,3.772,3.754,9.877,0,13.61
			c-0.315,0.315-7.208,7.207-28.37,28.37c-2.01,2.01-4.79,3.16-7.64,3.16H82.19c-6.87,0-13.297,3.574-16.93,9.45l-8.28,13.43
			c-0.729,1.189-0.347,2.723,0.82,3.44c1.149,0.707,2.703,0.383,3.44-0.82v-0.01l8.279-13.41c2.69-4.37,7.54-7.08,12.67-7.08h81.221
			c4.229,0,8.199-1.64,11.18-4.63C188.381,211.292,199.027,200.645,202.951,196.723z"/>
		<path d="M52.75,121.104c2.279-0.753,2.284-3.993,0-4.747c-3.821-1.262-6.821-2.069-8.821-10.687c-0.599-2.573-4.274-2.566-4.871,0
			c-1.953,8.417-4.834,9.369-8.821,10.686c-2.279,0.753-2.284,3.993,0,4.748c6.869,2.271,7.646,5.618,8.821,10.686
			c0.598,2.578,4.273,2.578,4.871,0C45.881,123.374,48.762,122.422,52.75,121.104z M41.55,123.645
			c-0.99-1.76-2.406-3.424-4.567-4.854c1.717-1.125,3.238-2.687,4.521-5.101c1.304,2.451,2.813,4.003,4.37,5.065
			C44.24,119.855,42.785,121.363,41.55,123.645z"/>
		<path d="M210.429,33.29c1.952-8.416,4.833-9.368,8.821-10.686c2.279-0.753,2.284-3.993,0-4.747
			c-3.821-1.262-6.821-2.069-8.821-10.687c-0.599-2.573-4.274-2.566-4.871,0c-1.953,8.417-4.834,9.369-8.821,10.686
			c-2.279,0.753-2.284,3.993,0,4.748c6.869,2.271,7.646,5.618,8.821,10.686C206.156,35.868,209.831,35.867,210.429,33.29z
			 M203.483,20.291c1.717-1.125,3.238-2.687,4.521-5.101c1.304,2.451,2.813,4.003,4.37,5.065c-1.634,1.099-3.088,2.607-4.323,4.889
			C207.06,23.385,205.644,21.721,203.483,20.291z"/>
		<path d="M214.084,58.354c6.869,2.271,7.646,5.618,8.821,10.686c0.598,2.578,4.273,2.578,4.871,0
			c1.952-8.416,4.833-9.368,8.821-10.686c2.279-0.753,2.284-3.993,0-4.747c-3.821-1.262-6.821-2.069-8.821-10.687
			c-0.599-2.573-4.274-2.566-4.871,0c-1.953,8.417-4.834,9.369-8.821,10.686C211.806,54.359,211.8,57.599,214.084,58.354z
			 M225.351,50.94c1.304,2.451,2.813,4.003,4.37,5.065c-1.634,1.099-3.088,2.607-4.323,4.889c-0.99-1.76-2.406-3.424-4.567-4.854
			C222.547,54.916,224.069,53.354,225.351,50.94z"/>
	</g>
</g>
</svg>
